<?xml version="1.0" encoding="utf-8"?>
<!-- Generator: Adobe Illustrator 16.0.3, SVG Export Plug-In . SVG Version: 6.00 Build 0)  -->
<!DOCTYPE svg PUBLIC "-//W3C//DTD SVG 1.1//EN" "http://www.w3.org/Graphics/SVG/1.1/DTD/svg11.dtd">
<svg version="1.1" id="Capa_1" xmlns="http://www.w3.org/2000/svg" xmlns:xlink="http://www.w3.org/1999/xlink" x="0px" y="0px"
	 width="144px" height="144px" viewBox="0 0 144 144" enable-background="new 0 0 144 144" xml:space="preserve">
<g>
	<path fill-rule="evenodd" clip-rule="evenodd" fill="#4FB15F" d="M36.075,59.599c0-0.397,0-0.664,0-0.928
		c0-11.842,0-23.685,0-35.526c0-1.524,0.323-1.898,1.674-1.898c19.967-0.001,39.935-0.001,59.9,0.001
		c1.066,0,1.471,0.471,1.476,1.688c0.002,0.873,0.001,1.744,0.001,2.721c0.688,0,1.327,0,1.964,0c0.821,0,1.643-0.011,2.461,0.003
		c0.908,0.015,1.349,0.498,1.36,1.53c0.019,1.531,0.004,3.064,0.004,4.595c0,0.313,0,0.625,0,1.015c1.292,0,2.519-0.002,3.745,0
		c1.056,0.002,1.484,0.491,1.482,1.688c0,11.574,0,23.148-0.001,34.722c0,0.22,0.005,0.439-0.002,0.656
		c-0.032,0.802-0.508,1.376-1.154,1.398c-0.652,0.024-1.167-0.502-1.248-1.298c-0.023-0.24-0.014-0.484-0.014-0.729
		c0-10.94,0-21.883,0-32.825c0-0.265,0-0.529,0-0.856c-0.938,0-1.833,0-2.809,0c0,0.573,0,1.149,0,1.725
		c0,10.238,0.005,20.475-0.012,30.711c0,0.608,0.141,0.94,0.644,1.235c1.854,1.078,2.967,2.761,3.345,5.13
		c1.583,9.946,3.215,19.881,4.829,29.822c0.956,5.901,1.926,11.8,2.871,17.704c0.477,2.968-1.539,5.681-4.359,5.91
		c-0.321,0.027-0.648,0.027-0.971,0.027c-27.718,0.003-55.434,0.006-83.148-0.002c-2.824,0-4.996-1.386-6.187-4.271
		c-0.523-1.266-0.639-2.76-0.87-4.165c-1.467-8.956-2.914-17.917-4.371-26.875c-1.46-8.981-2.931-17.962-4.383-26.945
		c-0.467-2.893,1.439-5.589,4.149-5.903c0.449-0.052,0.905-0.058,1.358-0.058c5.785-0.005,11.57-0.002,17.354-0.002
		C35.442,59.599,35.718,59.599,36.075,59.599z M69.747,125.145c13.771,0,27.546,0,41.318,0c0.303,0,0.607,0.011,0.907-0.027
		c1.729-0.22,2.483-1.4,2.169-3.322c-1.462-8.984-2.918-17.968-4.374-26.953c-1.089-6.715-2.184-13.43-3.256-20.146
		c-0.21-1.317-0.831-2.267-1.82-2.945c-0.798-0.547-1.659-0.751-2.592-0.751c-18.438,0.01-36.873,0.007-55.308,0.007
		c-1.246,0-1.562-0.309-1.763-1.677c-0.178-1.198-0.285-2.421-0.581-3.582c-0.187-0.733-0.566-1.478-1.029-2.039
		c-0.826-1.001-1.931-1.423-3.155-1.423c-7.62,0-15.24,0-22.861,0.005c-0.258,0-0.519,0.02-0.771,0.075
		c-1.498,0.327-2.183,1.423-1.915,3.1c0.696,4.326,1.408,8.649,2.111,12.973c1.324,8.146,2.646,16.294,3.971,24.441
		c1.019,6.258,2.021,12.522,3.093,18.77c0.125,0.736,0.545,1.487,1.001,2.057c0.87,1.08,2.053,1.442,3.34,1.442
		C42.072,125.143,55.909,125.143,69.747,125.145z M38.489,59.629c0.904,0,1.701-0.04,2.494,0.007
		c2.874,0.17,5.359,2.638,5.872,5.796c0.109,0.669,0.278,1.333,0.313,2.007c0.036,0.704,0.298,0.858,0.886,0.856
		c15.975-0.018,31.95-0.013,47.923-0.013c0.229,0,0.459,0,0.702,0c0-14.822,0-29.547,0-44.362c-0.27,0-0.501,0-0.73,0
		c-18.89,0-37.778,0.005-56.667-0.019c-0.687-0.001-0.807,0.229-0.806,0.938c0.019,11.283,0.013,22.567,0.013,33.85
		C38.489,58.955,38.489,59.22,38.489,59.629z M102.482,68.251c0-13.319,0-26.556,0-39.83c-1.121,0-2.206,0-3.309,0
		c0,13.299,0,26.553,0,39.83C100.291,68.251,101.362,68.251,102.482,68.251z"/>
	<path fill-rule="evenodd" clip-rule="evenodd" fill="#4FB15F" d="M116.896,48.813c1.596,0,3.209-0.174,4.78,0.038
		c3.173,0.429,5.238,3.652,4.756,7.231c-1.124,8.33-2.277,16.656-3.411,24.983c-1.142,8.379-2.275,16.756-3.411,25.136
		c-0.35,2.568-0.696,5.137-1.048,7.703c-0.127,0.921-0.709,1.457-1.417,1.322c-0.706-0.135-1.078-0.839-0.953-1.765
		c1.148-8.451,2.291-16.903,3.442-25.353c0.884-6.479,1.779-12.96,2.664-19.439c0.573-4.198,1.156-8.399,1.706-12.603
		c0.307-2.346-0.596-4.046-2.359-4.513c-0.353-0.092-0.728-0.102-1.092-0.102c-2.611-0.01-5.224,0.005-7.834-0.013
		c-1.083-0.005-1.688-1.018-1.217-1.999c0.25-0.524,0.67-0.719,1.187-0.719c1.402,0.008,2.804,0.002,4.207,0.002
		C116.896,48.754,116.896,48.784,116.896,48.813z"/>
	<path fill-rule="evenodd" clip-rule="evenodd" fill="#4FB15F" d="M35.345,52.46c-0.227,0.484-0.381,0.791-0.518,1.108
		c-0.37,0.863-0.794,1.709-1.078,2.608c-0.269,0.844-0.752,1.313-1.469,1.158c-0.687-0.15-1.032-0.814-0.892-1.725
		c0.229-1.473,0.81-2.755,1.671-3.881c0.372-0.484,0.88-0.724,1.382-0.375C34.8,51.604,35.039,52.071,35.345,52.46z"/>
	<path fill-rule="evenodd" clip-rule="evenodd" fill="#4FB15F" d="M67.558,44.15c-5.631,0-11.263,0.001-16.895-0.001
		c-1.105,0-1.789-0.861-1.366-1.81c0.174-0.389,0.635-0.636,1-0.883c0.144-0.099,0.379-0.026,0.574-0.026
		c11.135,0,22.268,0,33.402,0c1.161,0,1.715,0.426,1.735,1.331c0.021,0.926-0.561,1.39-1.748,1.39
		C78.692,44.15,73.125,44.15,67.558,44.15z"/>
	<path fill-rule="evenodd" clip-rule="evenodd" fill="#4FB15F" d="M67.618,55.273c5.588,0,11.175,0,16.764,0
		c0.214,0,0.436-0.015,0.644,0.025c0.576,0.115,0.997,0.704,0.988,1.343c-0.01,0.626-0.4,1.163-0.967,1.283
		c-0.252,0.055-0.516,0.058-0.771,0.058c-11.111,0.002-22.221,0.002-33.333,0.002c-0.107,0-0.215,0.002-0.323-0.002
		c-0.901-0.03-1.464-0.572-1.442-1.385c0.022-0.832,0.567-1.323,1.484-1.323C56.314,55.273,61.966,55.273,67.618,55.273z"/>
	<path fill-rule="evenodd" clip-rule="evenodd" fill="#4FB15F" d="M67.594,64.894c-5.545,0-11.091,0-16.635,0
		c-0.217,0-0.434,0.013-0.647-0.01c-0.624-0.065-1.09-0.604-1.129-1.281c-0.037-0.661,0.388-1.26,1.012-1.387
		c0.209-0.042,0.429-0.038,0.644-0.038c11.133-0.002,22.267-0.002,33.398,0c0.259,0,0.521,0,0.773,0.05
		c0.639,0.13,1.028,0.689,0.998,1.393c-0.03,0.649-0.465,1.174-1.069,1.259c-0.212,0.029-0.43,0.015-0.646,0.015
		C78.725,64.894,73.159,64.894,67.594,64.894z"/>
	<path fill-rule="evenodd" clip-rule="evenodd" fill="#4FB15F" d="M67.597,51.048c-5.674,0-11.347,0.002-17.021-0.003
		c-0.965,0-1.555-0.716-1.354-1.627c0.134-0.607,0.479-0.969,1.036-1.034c0.257-0.032,0.518-0.025,0.776-0.025
		c11.046,0,22.09,0,33.136,0c0.26,0,0.521-0.005,0.776,0.03c0.631,0.083,1.073,0.642,1.069,1.321
		c-0.005,0.711-0.483,1.275-1.139,1.333c-0.149,0.015-0.302,0.005-0.453,0.005C78.816,51.048,73.206,51.048,67.597,51.048z"/>
	<path fill-rule="evenodd" clip-rule="evenodd" fill="#4FB15F" d="M72.021,34.533c4.162,0,8.326,0.003,12.489-0.005
		c0.575-0.001,1.077,0.103,1.367,0.739c0.373,0.823-0.078,1.802-0.891,1.925c-0.17,0.026-0.344,0.02-0.517,0.02
		c-8.349,0.001-16.697,0.001-25.044,0c-0.151,0-0.304,0.002-0.454-0.018c-0.633-0.083-1.045-0.622-1.033-1.342
		c0.01-0.709,0.442-1.25,1.074-1.304c0.386-0.032,0.777-0.015,1.165-0.015C64.126,34.533,68.073,34.533,72.021,34.533z"/>
</g>
</svg>
