<?xml version="1.0" encoding="utf-8"?>
<!-- Generator: Adobe Illustrator 16.0.3, SVG Export Plug-In . SVG Version: 6.00 Build 0)  -->
<!DOCTYPE svg PUBLIC "-//W3C//DTD SVG 1.1//EN" "http://www.w3.org/Graphics/SVG/1.1/DTD/svg11.dtd">
<svg version="1.1" id="Capa_1" xmlns="http://www.w3.org/2000/svg" xmlns:xlink="http://www.w3.org/1999/xlink" x="0px" y="0px"
	 width="144px" height="144px" viewBox="0 0 144 144" enable-background="new 0 0 144 144" xml:space="preserve">
<path fill-rule="evenodd" clip-rule="evenodd" fill="none" stroke="#4FB15F" stroke-width="3" stroke-miterlimit="10" d="
	M74.085,124.451c1.855,1.85,3.547,3.539,5.242,5.226c0.934,0.93,1.884,1.846,2.807,2.785c2.248,2.287,2.297,5.747,0.127,7.893
	c-2.249,2.222-5.644,2.197-7.949-0.092c-5.965-5.923-11.924-11.853-17.872-17.793c-2.614-2.61-2.581-5.818,0.031-8.44
	c5.89-5.915,11.775-11.833,17.658-17.754c2.284-2.299,5.746-2.413,7.956-0.251c2.236,2.189,2.246,5.624-0.027,7.943
	c-2.686,2.74-5.406,5.445-8.122,8.155c-0.346,0.345-0.752,0.629-1.13,0.94c0.058,0.087,0.116,0.173,0.174,0.26
	c0.946,0,1.894,0.041,2.839-0.006c18.993-0.942,35.196-15.623,37.967-34.411c1.569-10.632-0.634-20.421-6.643-29.344
	c-1.863-2.766-1.321-6.123,1.28-7.917c2.585-1.785,5.954-1.083,7.832,1.676c0.84,1.233,1.642,2.497,2.377,3.794
	c15.083,26.624,3.761,60.619-24.276,72.938c-6.078,2.671-12.438,4.083-19.063,4.343C74.975,124.408,74.657,124.425,74.085,124.451z"
	/>
<path fill-rule="evenodd" clip-rule="evenodd" fill="none" stroke="#4FB15F" stroke-width="3" stroke-miterlimit="10" d="
	M71.762,20.083c-0.958-0.916-1.975-1.865-2.967-2.84c-1.711-1.685-3.434-3.359-5.101-5.087c-1.627-1.686-2.032-4.045-1.059-6.102
	c1.011-2.134,2.753-3.221,5.108-3.236c1.465-0.01,2.747,0.542,3.792,1.581c6.085,6.051,12.178,12.094,18.241,18.166
	c2.298,2.301,2.282,5.642,0,7.942c-6.003,6.049-12.016,12.089-18.038,18.118c-2.243,2.245-5.722,2.272-7.883,0.107
	c-2.183-2.187-2.177-5.6,0.063-7.883c2.686-2.739,5.404-5.447,8.122-8.154c0.348-0.347,0.784-0.605,1.179-0.905
	c-0.064-0.093-0.129-0.187-0.194-0.279c-0.184-0.028-0.368-0.083-0.552-0.08c-14.018,0.273-25.3,5.997-33.37,17.439
	c-9.945,14.103-9.884,32.111-0.225,46.428c1.627,2.412,1.41,5.261-0.553,7.228c-1.854,1.859-4.821,2.146-7.004,0.602
	c-0.607-0.43-1.15-1.013-1.573-1.628c-15.083-21.911-11.006-51.882,9.387-68.949c9.171-7.676,19.772-11.666,31.708-12.148
	c0.262-0.011,0.523-0.035,0.785-0.058C71.642,20.341,71.653,20.295,71.762,20.083z"/>
</svg>
