<?xml version="1.0" encoding="utf-8"?>
<!-- Generator: Adobe Illustrator 16.0.3, SVG Export Plug-In . SVG Version: 6.00 Build 0)  -->
<!DOCTYPE svg PUBLIC "-//W3C//DTD SVG 1.1//EN" "http://www.w3.org/Graphics/SVG/1.1/DTD/svg11.dtd">
<svg version="1.1" id="Capa_1" xmlns="http://www.w3.org/2000/svg" xmlns:xlink="http://www.w3.org/1999/xlink" x="0px" y="0px"
	 width="144px" height="144px" viewBox="0 0 144 144" enable-background="new 0 0 144 144" xml:space="preserve">
<path fill-rule="evenodd" clip-rule="evenodd" fill="#4FB15F" d="M69.809,76.055c0-2.007,0.002-3.798-0.001-5.59
	c-0.003-1.394,0.437-2.518,2.036-2.493c1.571,0.023,2.025,1.128,2.014,2.531c-0.016,1.745-0.004,3.488-0.004,5.579
	c0.859,0,1.6,0,2.341,0c13.208,0,26.416-0.003,39.626,0.001c2.785,0,3.168,0.373,3.184,3.115c0.019,3.235-0.012,6.475,0.03,9.712
	c0.019,1.552-0.151,3.069-2.081,3.046c-1.809-0.022-1.979-1.486-1.961-2.964c0.035-2.894,0.01-5.788,0.01-8.799
	c-13.739,0-27.249,0-41.135,0c0,2.525,0.002,5.082,0,7.637c0,2.665-0.594,3.827-2.039,3.68c-2.402-0.247-1.958-2.156-1.974-3.727
	c-0.026-2.507-0.007-5.014-0.007-7.598c-13.773,0-27.271,0-41.002,0c0,2.742,0.002,5.378,0,8.013
	c-0.001,0.648,0.223,1.457-0.08,1.905c-0.509,0.753-1.31,1.666-2.08,1.76c-0.521,0.064-1.697-1.14-1.725-1.813
	c-0.173-4.007-0.119-8.024-0.087-12.039c0.011-1.232,0.777-1.866,1.995-1.926c0.581-0.03,1.165-0.025,1.747-0.025
	c12.885-0.001,25.771-0.004,38.655-0.004C68.028,76.055,68.788,76.055,69.809,76.055z"/>
<path fill-rule="evenodd" clip-rule="evenodd" fill="#4FB15F" d="M116.932,141.713c-4.725,0-9.449,0.016-14.175-0.007
	c-2.281-0.01-2.918-0.617-2.886-2.864c0.049-3.423-0.205-6.909,0.357-10.254c1.498-8.912,9.51-14.756,18.601-13.948
	c8.509,0.757,15.247,8.219,15.324,16.98c0.021,2.394,0.021,4.789,0.005,7.183c-0.015,2.281-0.602,2.903-2.858,2.915
	c-4.79,0.027-9.58,0.009-14.368,0.009C116.932,141.722,116.932,141.718,116.932,141.713z M103.941,137.477
	c8.846,0,17.417,0,26.184,0c0-2.229,0.089-4.35-0.016-6.459c-0.28-5.676-4.203-10.454-9.716-11.962
	c-5.41-1.479-11.224,0.818-14.385,5.558C103.365,128.577,103.881,132.963,103.941,137.477z"/>
<path fill-rule="evenodd" clip-rule="evenodd" fill="#4FB15F" d="M71.728,142.21c-4.724,0-9.449,0.011-14.174-0.005
	c-2.302-0.008-2.838-0.56-2.854-2.887c-0.016-2.458-0.049-4.917,0.002-7.377c0.193-9.525,7.926-16.997,17.44-16.888
	c9.229,0.104,16.771,7.743,16.87,17.102c0.027,2.46,0.028,4.918-0.006,7.379c-0.026,1.988-0.693,2.641-2.718,2.648
	c-4.854,0.022-9.708,0.009-14.562,0.009C71.728,142.197,71.728,142.204,71.728,142.21z M84.86,138.024
	c0-2.46,0.198-4.795-0.04-7.083c-0.55-5.295-3.424-9.03-8.381-10.902c-4.954-1.871-9.545-0.945-13.517,2.605
	c-4.684,4.188-4.431,9.692-4.074,15.38C67.508,138.024,76.076,138.024,84.86,138.024z"/>
<path fill-rule="evenodd" clip-rule="evenodd" fill="#4FB15F" d="M26.811,142.232c-4.722,0-9.445,0.008-14.167-0.004
	c-2.403-0.005-2.932-0.544-2.944-2.985c-0.012-2.524-0.057-5.047,0.018-7.569c0.273-9.219,7.881-16.532,17.164-16.55
	c9.192-0.016,16.879,7.447,17.092,16.629c0.061,2.588,0.04,5.176,0.017,7.763c-0.019,2.169-0.577,2.705-2.817,2.712
	C36.386,142.24,31.598,142.23,26.811,142.232z M39.992,138.135c0-2.208,0.087-4.262-0.017-6.305
	c-0.328-6.474-5.272-11.867-11.411-12.54c-6.553-0.719-12.646,3.088-14.224,9.378c-0.752,2.992-0.596,6.211-0.864,9.467
	C22.512,138.135,31.077,138.135,39.992,138.135z"/>
<path fill-rule="evenodd" clip-rule="evenodd" fill="#4FB15F" d="M17.938,103.648c0.001-4.896,3.976-8.868,8.881-8.879
	c4.996-0.008,9.009,4.021,8.968,9.007c-0.039,4.813-4.182,8.875-9,8.827C21.92,112.556,17.938,108.527,17.938,103.648z
	 M31.661,103.724c0.041-2.646-2.063-4.852-4.701-4.93c-2.658-0.078-4.98,2.212-4.963,4.892c0.017,2.652,2.164,4.777,4.832,4.782
	C29.533,108.474,31.618,106.426,31.661,103.724z"/>
<path fill-rule="evenodd" clip-rule="evenodd" fill="#4FB15F" d="M116.948,111.968c-4.906-0.024-8.879-4.018-8.857-8.907
	c0.019-4.861,4.069-8.915,8.906-8.916c4.956,0,8.998,4.1,8.939,9.062C125.878,108.124,121.908,111.991,116.948,111.968z
	 M112.17,103.029c-0.042,2.629,2.056,4.843,4.683,4.939c2.644,0.098,5.003-2.157,5.035-4.813c0.03-2.637-2.07-4.814-4.716-4.887
	C114.394,98.192,112.212,100.269,112.17,103.029z"/>
<path fill-rule="evenodd" clip-rule="evenodd" fill="#4FB15F" d="M62.939,103.594c-0.013-5.013,3.927-8.877,9.042-8.868
	c4.776,0.007,8.725,3.968,8.761,8.787c0.039,4.95-4.06,9.069-8.982,9.028C66.856,112.501,62.951,108.542,62.939,103.594z
	 M76.648,103.546c-0.039-2.685-2.192-4.836-4.815-4.807c-2.729,0.028-4.93,2.297-4.86,5.011c0.069,2.64,2.266,4.711,4.964,4.678
	C74.611,108.395,76.687,106.245,76.648,103.546z"/>
<g>
	<path fill-rule="evenodd" clip-rule="evenodd" fill="#4FB15F" d="M42.908,36.312c0-3.434,0-6.669,0-10.068
		c1.476-0.397,2.928-0.794,4.383-1.18c3.487-0.928,4.624-3.495,2.917-6.593c-2.353-4.271-2.353-4.271,1.029-7.654
		c3.577-3.579,3.577-3.579,7.967-1.156c2.821,1.557,5.583,0.393,6.454-2.716c1.323-4.726,1.323-4.726,6.233-4.724
		c4.937,0,4.937,0,6.245,4.707c0.863,3.106,3.604,4.266,6.454,2.745c1.441-0.769,3.012-2.242,4.322-2.049
		c1.345,0.203,2.472,2.022,3.645,3.183c3.413,3.372,3.403,3.383,1.047,7.645c-1.711,3.088-0.569,5.713,2.872,6.615
		c1.456,0.381,2.911,0.771,4.478,1.186c0,3.094,0.051,6.06-0.054,9.018c-0.017,0.471-0.657,1.144-1.156,1.328
		c-1.219,0.451-2.543,0.617-3.795,0.997c-2.743,0.839-3.872,3.538-2.604,6.101c0.061,0.122,0.142,0.236,0.207,0.358
		c2.388,4.352,2.388,4.352-1.237,7.935c-3.338,3.298-3.338,3.298-7.458,0.989c-3.153-1.767-5.855-0.581-6.76,2.97
		c-1.115,4.374-1.115,4.374-5.546,4.374c-0.069,0-0.139,0-0.208,0c-1.724-0.033-3.886,0.548-5.046-0.279
		c-1.107-0.789-1.191-3.036-1.694-4.653c-0.911-2.935-3.684-4.035-6.425-2.546c-1.433,0.778-2.993,2.274-4.293,2.081
		c-1.342-0.201-2.463-2.031-3.635-3.193c-3.389-3.361-3.381-3.371-1.024-7.642c1.623-2.938,0.504-5.675-2.731-6.603
		C46.042,37.071,44.565,36.734,42.908,36.312z M88.464,31.2c0.066-8.968-7.438-16.462-16.523-16.504
		c-8.961-0.04-16.57,7.384-16.61,16.208c-0.043,9.341,7.184,16.839,16.308,16.921C80.949,47.91,88.392,40.553,88.464,31.2z"/>
</g>
<g>
	<path fill-rule="evenodd" clip-rule="evenodd" fill="#4FB15F" d="M79.688,31.592c0.285,0.776-0.027,1.666-1.091,1.896
		c-0.179,1.223-0.459,1.501-1.571,1.57c-0.271,1.099-1.1,1.382-1.921,1.115c-0.706,0.948-1.185,1.077-2.145,0.577
		c-0.931,0.741-1.396,0.742-2.221,0.002c-1.101,0.47-1.529,0.356-2.147-0.572c-1.177,0.172-1.536-0.035-1.928-1.11
		c-1.198-0.154-1.473-0.429-1.569-1.573c-0.895-0.193-1.419-0.897-1.113-1.922c-0.943-0.662-1.068-1.131-0.57-2.146
		c-0.72-0.664-0.746-1.535-0.002-2.218c-0.541-0.858-0.292-1.687,0.568-2.145c-0.178-1.162,0.026-1.516,1.112-1.927
		c0.13-1.172,0.393-1.434,1.576-1.574c0.253-1.066,1.084-1.371,1.929-1.093c0.19-0.395,0.477-0.701,0.922-0.821
		c0.44-0.12,0.832-0.006,1.214,0.262c0.287-0.344,0.641-0.569,1.103-0.568c0.46,0.001,0.823,0.209,1.101,0.562
		c0.913-0.599,1.767-0.237,2.151,0.561c0.415-0.118,0.832-0.157,1.235,0.077c0.394,0.229,0.595,0.582,0.679,1.037
		c0.447-0.02,0.857,0.062,1.185,0.391c0.321,0.323,0.424,0.717,0.385,1.154c1.016,0.239,1.412,1.006,1.121,1.95
		c0.396,0.192,0.699,0.475,0.82,0.923c0.116,0.441-0.002,0.831-0.247,1.191c0.746,0.961,0.748,1.461,0.01,2.224
		C80.737,30.571,80.667,30.836,79.688,31.592z M71.844,35.272c3.839,0.001,6.946-3.101,6.949-6.936
		c0.002-3.86-3.092-6.966-6.941-6.972c-3.873-0.005-6.959,3.1-6.962,7.004C64.886,32.169,68.011,35.272,71.844,35.272z"/>
	<path fill-rule="evenodd" clip-rule="evenodd" fill="#4FB15F" d="M73.002,37.1c0.941,0.381,1.44,0.258,2.166-0.521
		c0.041-0.045,0.137-0.068,0.203-0.06c0.82,0.106,1.473-0.262,1.795-1.01c0.03-0.072,0.093-0.157,0.16-0.18
		c0.168-0.057,0.353-0.065,0.518-0.125c0.156-0.056,0.299-0.152,0.474-0.244c0.928,1.991,1.853,3.974,2.807,6.021
		c-1.366-0.45-2.669-0.879-3.991-1.315c-0.518,1.295-1.023,2.565-1.548,3.879c-0.054-0.095-0.095-0.155-0.125-0.221
		c-0.875-1.875-1.749-3.75-2.621-5.625C72.667,37.332,72.667,37.331,73.002,37.1z"/>
	<path fill-rule="evenodd" clip-rule="evenodd" fill="#4FB15F" d="M68.093,43.537c-0.517-1.298-1.025-2.569-1.543-3.87
		c-1.318,0.434-2.623,0.864-3.991,1.315c0.951-2.042,1.875-4.025,2.779-5.963c0.362,0.107,0.699,0.202,1.032,0.31
		c0.056,0.018,0.108,0.085,0.135,0.142c0.378,0.824,0.933,1.139,1.821,1.045c0.067-0.007,0.167,0.042,0.213,0.096
		c0.563,0.681,1.201,0.865,2.003,0.533c0.191-0.079,0.27,0.04,0.359,0.128c0.046,0.044,0.054,0.177,0.023,0.245
		c-0.917,1.975-1.837,3.947-2.758,5.919C68.158,43.461,68.137,43.48,68.093,43.537z"/>
	<path fill-rule="evenodd" clip-rule="evenodd" fill="#4FB15F" d="M71.835,34.738c-3.534-0.002-6.414-2.872-6.412-6.389
		c0.002-3.604,2.853-6.447,6.461-6.445c3.527,0.001,6.376,2.887,6.372,6.455C78.252,31.88,75.373,34.74,71.835,34.738z
		 M74.535,24.827c-1.451,1.458-2.912,2.923-4.384,4.4c-0.479-0.629-0.945-1.239-1.39-1.823c-0.464,0.455-0.914,0.895-1.373,1.344
		c0.911,1.059,1.827,2.124,2.723,3.163c1.932-1.933,3.848-3.85,5.744-5.745C75.436,25.742,74.998,25.296,74.535,24.827z"/>
	<path fill-rule="evenodd" clip-rule="evenodd" fill="#FFFFFF" d="M74.535,24.827c0.463,0.469,0.9,0.915,1.32,1.339
		c-1.896,1.895-3.812,3.812-5.744,5.745c-0.896-1.04-1.812-2.104-2.723-3.163c0.459-0.449,0.909-0.889,1.373-1.344
		c0.444,0.583,0.911,1.193,1.39,1.823C71.623,27.75,73.084,26.286,74.535,24.827z"/>
</g>
</svg>
